<svg xmlns="http://www.w3.org/2000/svg" width="64" height="64" viewBox="0 0 24 24"><path fill="currentColor" d="M22.756 7.626c0-.81-.657-1.467-1.467-1.466h-6.844a.25.25 0 0 1-.225-.147a.25.25 0 0 1 .049-.274l3.784-3.774a.978.978 0 1 0-1.37-1.389l-4.507 4.518c-.096.1-.256.1-.352 0L7.316.576a.982.982 0 0 0-1.388 1.389l3.784 3.774c.07.074.088.181.049.274a.25.25 0 0 1-.225.147H2.69a1.467 1.467 0 0 0-1.447 1.466v12.712c0 .81.657 1.466 1.467 1.466h.244c.135 0 .245.11.245.245v.733a.978.978 0 1 0 1.955 0v-.733c0-.135.11-.245.245-.245h13.2c.135 0 .245.11.245.245v.733a.978.978 0 1 0 1.955 0v-.733c0-.135.11-.245.245-.245h.244c.81 0 1.467-.656 1.467-1.466ZM7.11 18.871a2.933 2.933 0 0 1-2.933-2.933v-3.912A2.933 2.933 0 0 1 7.11 9.093h9.778a2.934 2.934 0 0 1 2.933 2.933v3.912a2.934 2.934 0 0 1-2.933 2.933Z"/></svg>